#!OML:ASF H:\LiuWeirdWalks\Patient Classification 1\Patient 1\Session 1\male.ASF
:FULLY-SPECIFIED
:DEGREES
864
root 1.28165 18.1291 3.65061 4.70849 5.527 -6.64553
lowerback 2.48324 3.51626 3.73693
upperback -2.1004 4.92882 2.33755
thorax -3.44945 2.39551 0.0601097
lowerneck -17.8262 -1.36466 3.29317
upperneck 18.0995 -2.12121 -3.01786
head 8.50694 -1.09041 -1.82374
rclavicle -3.85145e-016 6.4605e-015
rhumerus -35.4836 -9.44994 -80.0995
rradius 32.3944
rwrist -8.57314
rhand -17.8907 -4.01534
rfingers 7.12502
rthumb 8.37578 -33.8293
lclavicle -3.85145e-016 6.4605e-015
lhumerus -46.4131 4.54664 76.8708
lradius 31.3756
lwrist 12.2896
lhand -13.5213 -0.468556
lfingers 7.12502
lthumb 12.5906 29.132
rfemur 19.9159 -3.00592 27.7738
rtibia 4.91648
rfoot 2.96113 -9.29137
rtoes -24.2974
lfemur -26.2604 -1.17852 -15.5186
ltibia 29.3653
lfoot -5.49561 4.18837
ltoes -4.5467
865
root 1.30113 18.132 3.7155 4.77656 5.40849 -6.58718
lowerback 2.46117 3.50572 3.68675
upperback -2.10615 4.91111 2.32046
thorax -3.44586 2.38774 0.0723056
lowerneck -17.8874 -1.33062 3.33912
upperneck 18.1022 -2.08201 -3.05039
head 8.5192 -1.0725 -1.83847
rclavicle -2.82585e-014 -2.51463e-014
rhumerus -35.4621 -9.48212 -80.0632
rradius 32.2818
rwrist -8.51647
rhand -17.8799 -3.98972
rfingers 7.12502
rthumb 8.38621 -33.8032
lclavicle -2.82585e-014 -2.51463e-014
lhumerus -46.3267 4.58579 76.8105
lradius 31.2988
lwrist 12.2405
lhand -13.5336 -0.484768
lfingers 7.12502
lthumb 12.5788 29.1165
rfemur 19.7899 -2.99398 27.6138
rtibia 5.3719
rfoot 3.11722 -9.2196
rtoes -24.4157
lfemur -26.1574 -1.20122 -15.6362
ltibia 29.5397
lfoot -5.56 4.34678
ltoes -4.30416
866
root 1.32041 18.1348 3.78023 4.84423 5.29486 -6.53766
lowerback 2.42902 3.49058 3.64721
upperback -2.10887 4.88707 2.30583
thorax -3.43294 2.37678 0.0822803
lowerneck -17.9183 -1.28539 3.40959
upperneck 18.0521 -2.0291 -3.10431
head 8.50813 -1.04909 -1.86148
rclavicle 7.90852e-014 -6.16232e-015
rhumerus -35.4421 -9.52349 -80.0251
rradius 32.1699
rwrist -8.4643
rhand -17.881 -3.964
rfingers 7.12502
rthumb 8.38523 -33.7776
lclavicle 7.90852e-014 -6.16232e-015
lhumerus -46.2396 4.60655 76.7662
lradius 31.2321
lwrist 12.2022
lhand -13.5461 -0.506599
lfingers 7.12502
lthumb 12.5667 29.0955
rfemur 19.6508 -2.98719 27.4647
rtibia 5.84167
rfoot 3.2786 -9.15938
rtoes -24.5108
lfemur -26.0496 -1.17775 -15.7457
ltibia 29.7022
lfoot -5.6913 4.45729
ltoes -4.24042
867
root 1.3392 18.1377 3.84433 4.91257 5.18241 -6.50021
lowerback 2.40792 3.47202 3.61526
upperback -2.12047 4.85995 2.29484
thorax -3.43522 2.36381 0.0908673
lowerneck -17.9383 -1.26008 3.42366
upperneck 18.0319 -1.99961 -3.10194
head 8.50585 -1.03426 -1.85937
rclavicle 1.03057e-014 2.56432e-014
rhumerus -35.4374 -9.57853 -79.9836
rradius 32.0556
rwrist -8.39995
rhand -17.8961 -3.93467
rfingers 7.12502
rthumb 8.37062 -33.7488
lclavicle 1.03057e-014 2.56432e-014
lhumerus -46.1648 4.61158 76.7333
lradius 31.1752
lwrist 12.1736
lhand -13.5521 -0.559828
lfingers 7.12502
lthumb 12.561 29.0426
rfemur 19.5135 -2.98125 27.33
rtibia 6.29215
rfoot 3.46177 -9.1044
rtoes -24.5873
lfemur -25.9414 -1.1201 -15.8426
ltibia 29.8539
lfoot -5.8662 4.53946
ltoes -4.28265
868
root 1.35797 18.1406 3.90805 4.98168 5.0728 -6.46677
lowerback 2.37803 3.45004 3.59202
upperback -2.13116 4.82807 2.28332
thorax -3.43094 2.34837 0.0949617
lowerneck -17.9586 -1.2541 3.37305
upperneck 18.0556 -1.99222 -3.03591
head 8.51919 -1.02709 -1.82849
rclavicle -3.09793e-014 -2.43511e-014
rhumerus -35.4291 -9.63231 -79.9437
rradius 31.9293
rwrist -8.34748
rhand -17.925 -3.88343
rfingers 7.12502
rthumb 8.34269 -33.6987
lclavicle -3.09793e-014 -2.43511e-014
lhumerus -46.0956 4.58311 76.7246
lradius 31.1517
lwrist 12.1826
lhand -13.543 -0.523936
lfingers 7.12502
lthumb 12.5697 29.0779
rfemur 19.3948 -2.97684 27.1972
rtibia 6.6949
rfoot 3.67784 -9.04646
rtoes -24.6488
lfemur -25.8312 -1.0451 -15.9377
ltibia 29.9956
lfoot -6.06674 4.61331
ltoes -4.35301
869
root 1.37652 18.1435 3.97094 5.04935 4.96188 -6.44641
lowerback 2.34661 3.42235 3.5807
upperback -2.13539 4.78885 2.27732
thorax -3.41879 2.32922 0.098831
lowerneck -17.9964 -1.2482 3.30784
upperneck 18.1097 -1.98458 -2.95418
head 8.54636 -1.01893 -1.79058
rclavicle -1.00759e-014 -3.68746e-014
rhumerus -35.4086 -9.66972 -79.9117
rradius 31.8032
rwrist -8.30818
rhand -17.9557 -3.85621
rfingers 7.12502
rthumb 8.31308 -33.6726
lclavicle -1.00759e-014 -3.68746e-014
lhumerus -46.0185 4.55313 76.731
lradius 31.1401
lwrist 12.1899
lhand -13.5417 -0.502176
lfingers 7.12502
lthumb 12.571 29.0996
rfemur 19.2915 -2.96968 27.0761
rtibia 7.05623
rfoot 3.91596 -8.97663
rtoes -24.7117
lfemur -25.7177 -0.966483 -16.0195
ltibia 30.1262
lfoot -6.27128 4.69826
ltoes -4.38322
